<?xml version="1.0" encoding="UTF-8" standalone="no"?>
<svg
   xmlns:dc="http://purl.org/dc/elements/1.1/"
   xmlns:cc="http://creativecommons.org/ns#"
   xmlns:rdf="http://www.w3.org/1999/02/22-rdf-syntax-ns#"
   xmlns:svg="http://www.w3.org/2000/svg"
   xmlns="http://www.w3.org/2000/svg"
   xmlns:sodipodi="http://sodipodi.sourceforge.net/DTD/sodipodi-0.dtd"
   xmlns:inkscape="http://www.inkscape.org/namespaces/inkscape"
   viewBox="0 0 16 16"
   version="1.1"
   id="svg6"
   sodipodi:docname="folder-videos.svg"
   inkscape:version="0.92.3 (2405546, 2018-03-11)">
  <metadata
     id="metadata10">
    <rdf:RDF>
      <cc:Work
         rdf:about="">
        <dc:format>image/svg+xml</dc:format>
        <dc:type
           rdf:resource="http://purl.org/dc/dcmitype/StillImage" />
      </cc:Work>
    </rdf:RDF>
  </metadata>
  <sodipodi:namedview
     pagecolor="#ffffff"
     bordercolor="#666666"
     borderopacity="1"
     objecttolerance="10"
     gridtolerance="10"
     guidetolerance="10"
     inkscape:pageopacity="0"
     inkscape:pageshadow="2"
     inkscape:window-width="1366"
     inkscape:window-height="713"
     id="namedview8"
     showgrid="false"
     inkscape:zoom="15.614258"
     inkscape:cx="8"
     inkscape:cy="8"
     inkscape:window-x="0"
     inkscape:window-y="25"
     inkscape:window-maximized="1"
     inkscape:current-layer="svg6" />
  <defs
     id="defs3051">
    <style
       type="text/css"
       id="current-color-scheme">
      .ColorScheme-Text {
        color:#4d4d4d;
      }
      </style>
  </defs>
  <g
     transform="matrix(0.52085582,0,0,0.52085582,-4.9584149,-9.3072983)"
     style="isolation:isolate;fill:#4d4d4d;fill-opacity:1"
     id="g25">
    <path
       style="fill:#4d4d4d;fill-opacity:1"
       inkscape:connector-curvature="0"
       d="m 26.925,29.708 h -11.7 c -0.249,0 -0.45,0.202 -0.45,0.45 v 7.2 c 0,0.249 0.201,0.45 0.45,0.45 h 11.7 c 0.249,0 0.45,-0.201 0.45,-0.45 v -7.2 c 0,-0.248 -0.201,-0.45 -0.45,-0.45 z m -0.45,7.2 h -10.8 v -6.3 h 10.8 z"
       id="path21" />
    <path
       style="fill:#4d4d4d;fill-opacity:1"
       inkscape:connector-curvature="0"
       d="m 37.893,28.457 c -0.45,-0.233 -0.992,-0.194 -1.403,0.102 l -4.305,3.075 c -0.084,-0.08 -0.194,-0.125 -0.31,-0.126 h -1.35 v -2.7 c -0.002,-1.242 -1.008,-2.248 -2.25,-2.25 h -0.9 v -3.15 c 0,-0.248 -0.202,-0.45 -0.45,-0.45 h -11.7 c -0.249,0 -0.45,0.202 -0.45,0.45 v 3.15 h -0.9 c -1.242,0.002 -2.249,1.008 -2.25,2.25 v 9.9 c 10e-4,1.242 1.008,2.249 2.25,2.25 h 14.4 c 1.242,-10e-4 2.248,-1.008 2.25,-2.25 v -2.7 h 1.35 c 0.116,0 0.226,-0.045 0.31,-0.126 l 4.305,3.076 c 0.607,0.434 1.45,0.293 1.883,-0.314 0.164,-0.228 0.252,-0.503 0.252,-0.784 v -8.203 c 10e-4,-0.506 -0.282,-0.97 -0.732,-1.2 z M 15.675,23.858 h 10.8 v 2.7 h -10.8 z m 13.95,14.85 c 0,0.746 -0.604,1.35 -1.35,1.35 h -14.4 c -0.746,0 -1.35,-0.604 -1.35,-1.35 v -9.9 c 0,-0.745 0.604,-1.35 1.35,-1.35 h 14.4 c 0.746,0 1.35,0.605 1.35,1.35 z m 0.9,-3.6 v -2.7 h 0.9 v 2.7 z m 7.2,2.752 c 0,0.248 -0.202,0.45 -0.45,0.45 -0.094,0 -0.186,-0.03 -0.262,-0.084 L 32.325,34.877 V 32.64 l 4.688,-3.349 c 0.202,-0.144 0.483,-0.098 0.628,0.104 0.055,0.077 0.084,0.168 0.084,0.262 z"
       id="path23" />
  </g>
</svg>
