<?xml version="1.0" encoding="UTF-8" standalone="no"?>
<svg
   xmlns:dc="http://purl.org/dc/elements/1.1/"
   xmlns:cc="http://creativecommons.org/ns#"
   xmlns:rdf="http://www.w3.org/1999/02/22-rdf-syntax-ns#"
   xmlns:svg="http://www.w3.org/2000/svg"
   xmlns="http://www.w3.org/2000/svg"
   xmlns:sodipodi="http://sodipodi.sourceforge.net/DTD/sodipodi-0.dtd"
   xmlns:inkscape="http://www.inkscape.org/namespaces/inkscape"
   viewBox="0 0 16 16"
   version="1.1"
   id="svg6"
   sodipodi:docname="folder-sound.svg"
   inkscape:version="0.92.3 (2405546, 2018-03-11)">
  <metadata
     id="metadata10">
    <rdf:RDF>
      <cc:Work
         rdf:about="">
        <dc:format>image/svg+xml</dc:format>
        <dc:type
           rdf:resource="http://purl.org/dc/dcmitype/StillImage" />
      </cc:Work>
    </rdf:RDF>
  </metadata>
  <sodipodi:namedview
     pagecolor="#ffffff"
     bordercolor="#666666"
     borderopacity="1"
     objecttolerance="10"
     gridtolerance="10"
     guidetolerance="10"
     inkscape:pageopacity="0"
     inkscape:pageshadow="2"
     inkscape:window-width="1366"
     inkscape:window-height="713"
     id="namedview8"
     showgrid="false"
     inkscape:zoom="22.081895"
     inkscape:cx="8"
     inkscape:cy="8"
     inkscape:window-x="0"
     inkscape:window-y="25"
     inkscape:window-maximized="1"
     inkscape:current-layer="svg6" />
  <defs
     id="defs3051">
    <style
       type="text/css"
       id="current-color-scheme">
      .ColorScheme-Text {
        color:#4d4d4d;
      }
      </style>
  </defs>
  <path
     inkscape:connector-curvature="0"
     style="isolation:isolate;fill:#4d4d4d;fill-opacity:1;stroke-width:0.78153849"
     d="m 14.776104,1.1002728 c -0.05925,-0.048166 -0.13716,-0.069991 -0.216696,-0.061713 L 6.0498427,2.0598325 C 5.9126833,2.0763896 5.8104224,2.1840108 5.8104224,2.3119521 V 3.8434846 4.9159337 11.377722 C 5.3096688,10.818543 4.5126833,10.45504 3.6142485,10.45504 c -1.5136232,0 -2.74481155,1.028045 -2.74481155,2.290901 0,1.263609 1.23118835,2.290902 2.74481155,2.290902 1.5136232,0 2.7456232,-1.027293 2.7456232,-2.290902 0,-0.0587 -0.00568,-0.116652 -0.010551,-0.174602 0.00325,-0.01656 0.010551,-0.03161 0.010551,-0.04892 V 5.1394547 L 14.320799,4.1844106 v 4.647279 c -0.501565,-0.558426 -1.297739,-0.92193 -2.196174,-0.92193 -1.513623,0 -2.7456229,1.027294 -2.7456229,2.2909024 0,1.263609 1.2319999,2.290902 2.7456229,2.290902 1.499826,0 2.721276,-1.009231 2.743189,-2.257035 0,-0.003 0.0016,-0.006 0.0016,-0.0098 V 3.8946612 2.8229647 1.2914322 c 0,-0.073754 -0.03409,-0.1429932 -0.09333,-0.1911594 z M 3.6142485,14.528088 c -1.2108985,0 -2.1961739,-0.799257 -2.1961739,-1.782147 0,-0.982137 0.9852754,-1.781394 2.1961739,-1.781394 1.2108985,0 2.1961739,0.799257 2.1961739,1.781394 0,0.98289 -0.9852754,1.782147 -2.1961739,1.782147 z m 8.5103765,-2.545279 c -1.210898,0 -2.1961736,-0.800009 -2.1961736,-1.782147 0,-0.9821374 0.9852756,-1.7821474 2.1961736,-1.7821474 1.210899,0 2.196174,0.80001 2.196174,1.7821474 0,0.982138 -0.985275,1.782147 -2.196174,1.782147 z M 6.3598717,4.6261843 V 3.8434846 2.5354731 L 14.320799,1.580429 v 1.2425357 0.8481755 z"
     id="path21" />
</svg>
