<?xml version="1.0" encoding="UTF-8" standalone="no"?>
<svg
   xmlns:dc="http://purl.org/dc/elements/1.1/"
   xmlns:cc="http://creativecommons.org/ns#"
   xmlns:rdf="http://www.w3.org/1999/02/22-rdf-syntax-ns#"
   xmlns:svg="http://www.w3.org/2000/svg"
   xmlns="http://www.w3.org/2000/svg"
   xmlns:sodipodi="http://sodipodi.sourceforge.net/DTD/sodipodi-0.dtd"
   xmlns:inkscape="http://www.inkscape.org/namespaces/inkscape"
   viewBox="0 0 16 16"
   version="1.1"
   id="svg5"
   sodipodi:docname="folder-pictures.svg"
   inkscape:version="0.92.3 (2405546, 2018-03-11)">
  <metadata
     id="metadata9">
    <rdf:RDF>
      <cc:Work
         rdf:about="">
        <dc:format>image/svg+xml</dc:format>
        <dc:type
           rdf:resource="http://purl.org/dc/dcmitype/StillImage" />
      </cc:Work>
    </rdf:RDF>
  </metadata>
  <sodipodi:namedview
     pagecolor="#ffffff"
     bordercolor="#666666"
     borderopacity="1"
     objecttolerance="10"
     gridtolerance="10"
     guidetolerance="10"
     inkscape:pageopacity="0"
     inkscape:pageshadow="2"
     inkscape:window-width="1366"
     inkscape:window-height="713"
     id="namedview7"
     showgrid="false"
     showguides="false"
     inkscape:zoom="22.081895"
     inkscape:cx="8"
     inkscape:cy="8"
     inkscape:window-x="0"
     inkscape:window-y="25"
     inkscape:window-maximized="1"
     inkscape:current-layer="svg5" />
  <defs
     id="defs3051">
    <style
       type="text/css"
       id="current-color-scheme">
      .ColorScheme-Text {
        color:#4d4d4d;
      }
      </style>
  </defs>
  <path
     inkscape:connector-curvature="0"
     style="isolation:isolate;fill:#4d4d4d;fill-opacity:1;stroke-width:0.57340062"
     d="m 14.456548,3.2050075 h -0.28842 V 2.916587 c 0,-0.4770693 -0.388193,-0.8652615 -0.865262,-0.8652615 h -0.576268 c -0.477069,0 -0.865261,0.3881922 -0.865261,0.8652615 V 3.2050075 H 5.1708986 V 2.916587 c 0,-0.4770693 -0.3881922,-0.8652615 -0.8652615,-0.8652615 H 2.5756875 c -0.4770693,0 -0.8652615,0.3881922 -0.8652615,0.8652615 V 3.2050075 H 1.4220055 c -0.47706929,0 -0.8652615,0.3881922 -0.8652615,0.8652615 v 8.650895 c 0,0.477069 0.38819221,0.865261 0.8652615,0.865261 H 14.456548 c 0.477069,0 0.865262,-0.388192 0.865262,-0.865261 V 4.070269 c 0,-0.4770693 -0.388193,-0.8652615 -0.865262,-0.8652615 z M 12.438178,2.916587 c 0,-0.1594054 0.129015,-0.2884205 0.28842,-0.2884205 h 0.576268 c 0.159405,0 0.288421,0.1290151 0.288421,0.2884205 v 0.2884205 h -1.153109 z m -10.150911,0 c 0,-0.1594054 0.1290151,-0.2884205 0.2884205,-0.2884205 h 1.7299496 c 0.158832,0 0.2884205,0.1290151 0.2884205,0.2884205 V 3.2050075 H 2.287267 Z M 1.133585,6.0886391 h 1.2029944 c 0.1192673,0.3354394 0.4397983,0.576841 0.8153757,0.576841 0.3761508,0 0.6966817,-0.2414016 0.8159491,-0.5774144 H 5.2356929 C 4.5711216,6.7795868 4.1903836,7.704482 4.1903836,8.6838501 c 0,1.3343029 0.7006955,2.5080539 1.753459,3.1726259 H 1.133585 Z M 2.8635346,5.8002186 c 0,-0.1588319 0.1295885,-0.2884205 0.2884205,-0.2884205 0.1594054,0 0.2884205,0.1295886 0.2884205,0.2884205 0,0.158832 -0.1290151,0.2884205 -0.2884205,0.2884205 -0.158832,0 -0.2884205,-0.1295885 -0.2884205,-0.2884205 z M 7.9392765,5.5117981 c 1.7488718,0 3.1720525,1.4237537 3.1720525,3.172052 0,1.7494449 -1.4231807,3.1726259 -3.1720525,3.1726259 -1.7488716,0 -3.1720519,-1.423181 -3.1720519,-3.1726259 0,-1.7505919 1.4254739,-3.172052 3.1720519,-3.172052 z m 6.8056925,7.2093659 c 0,0.159405 -0.129016,0.28842 -0.288421,0.28842 H 1.4220055 c -0.1594054,0 -0.2884205,-0.129015 -0.2884205,-0.28842 v -0.288421 h 13.611384 z m 0,-0.864688 H 9.9347106 C 10.987474,11.191904 11.68817,10.018153 11.68817,8.6838501 c 0,-0.9793681 -0.380738,-1.9042633 -1.04531,-2.595211 h 4.102109 z m 0,-6.3446779 H 9.9335638 C 9.3360803,5.1345005 8.648573,4.9349571 7.9392765,4.9349571 c -0.7092966,0 -1.3968036,0.1995434 -1.9942871,0.576841 H 3.9679042 C 3.8486368,5.1763588 3.5281059,4.9349571 3.1519551,4.9349571 c -0.3755774,0 -0.6961084,0.2414017 -0.8153757,0.576841 H 1.133585 V 4.070269 c 0,-0.1594054 0.1290151,-0.2884205 0.2884205,-0.2884205 H 14.456548 c 0.159405,0 0.288421,0.1290151 0.288421,0.2884205 z"
     id="path23" />
</svg>
