<?xml version="1.0" encoding="UTF-8" standalone="no"?>
<svg
   xmlns:dc="http://purl.org/dc/elements/1.1/"
   xmlns:cc="http://creativecommons.org/ns#"
   xmlns:rdf="http://www.w3.org/1999/02/22-rdf-syntax-ns#"
   xmlns:svg="http://www.w3.org/2000/svg"
   xmlns="http://www.w3.org/2000/svg"
   xmlns:sodipodi="http://sodipodi.sourceforge.net/DTD/sodipodi-0.dtd"
   xmlns:inkscape="http://www.inkscape.org/namespaces/inkscape"
   viewBox="0 0 16 16"
   version="1.1"
   id="svg7"
   sodipodi:docname="folder-favorites.svg"
   inkscape:version="0.92.3 (2405546, 2018-03-11)">
  <metadata
     id="metadata11">
    <rdf:RDF>
      <cc:Work
         rdf:about="">
        <dc:format>image/svg+xml</dc:format>
        <dc:type
           rdf:resource="http://purl.org/dc/dcmitype/StillImage" />
      </cc:Work>
    </rdf:RDF>
  </metadata>
  <sodipodi:namedview
     pagecolor="#ffffff"
     bordercolor="#666666"
     borderopacity="1"
     objecttolerance="10"
     gridtolerance="10"
     guidetolerance="10"
     inkscape:pageopacity="0"
     inkscape:pageshadow="2"
     inkscape:window-width="1366"
     inkscape:window-height="713"
     id="namedview9"
     showgrid="false"
     inkscape:zoom="15.614258"
     inkscape:cx="8"
     inkscape:cy="8"
     inkscape:window-x="0"
     inkscape:window-y="25"
     inkscape:window-maximized="1"
     inkscape:current-layer="svg7" />
  <defs
     id="defs3051">
    <style
       type="text/css"
       id="current-color-scheme">
      .ColorScheme-Text {
        color:#4d4d4d;
      }
      </style>
  </defs>
  <g
     transform="matrix(0.02462941,0,0,0.02579536,2.2465217,1.2105359)"
     id="g4"
     style="fill:#4d4d4d;fill-opacity:1">
    <path
       inkscape:connector-curvature="0"
       d="m 486.554,186.811 c -1.6,-4.9 -5.8,-8.4 -10.9,-9.2 l -152,-21.6 -68.4,-137.5 c -2.3,-4.6 -7,-7.5 -12.1,-7.5 v 0 c -5.1,0 -9.8,2.9 -12.1,7.6 l -67.5,137.9 -152,22.6 c -5.1,0.8 -9.3,4.3 -10.9,9.2 -1.6,4.9 -0.2,10.3 3.5,13.8 l 110.3,106.9 -25.5,151.4 c -0.9,5.1 1.2,10.2 5.4,13.2 2.3,1.7 5.1,2.6 7.9,2.6 2.2,0 4.3,-0.5 6.3,-1.6 l 135.7,-71.9 136.1,71.1 c 2,1 4.1,1.5 6.2,1.5 v 0 c 7.4,0 13.5,-6.1 13.5,-13.5 0,-1.1 -0.1,-2.1 -0.4,-3.1 l -26.3,-150.5 109.6,-107.5 c 3.9,-3.6 5.2,-9 3.6,-13.9 z m -137,107.1 c -3.2,3.1 -4.6,7.6 -3.8,12 l 22.9,131.3 -118.2,-61.7 c -3.9,-2.1 -8.6,-2 -12.6,0 l -117.8,62.4 22.1,-131.5 c 0.7,-4.4 -0.7,-8.8 -3.9,-11.9 l -95.6,-92.8 131.9,-19.6 c 4.4,-0.7 8.2,-3.4 10.1,-7.4 l 58.6,-119.7 59.4,119.4 c 2,4 5.8,6.7 10.2,7.4 l 132,18.8 z"
       id="path2"
       style="fill:#4d4d4d;fill-opacity:1" />
  </g>
</svg>
