<?xml version="1.0" encoding="UTF-8" standalone="no"?>
<svg
   xmlns:dc="http://purl.org/dc/elements/1.1/"
   xmlns:cc="http://creativecommons.org/ns#"
   xmlns:rdf="http://www.w3.org/1999/02/22-rdf-syntax-ns#"
   xmlns:svg="http://www.w3.org/2000/svg"
   xmlns="http://www.w3.org/2000/svg"
   xmlns:sodipodi="http://sodipodi.sourceforge.net/DTD/sodipodi-0.dtd"
   xmlns:inkscape="http://www.inkscape.org/namespaces/inkscape"
   viewBox="0 0 16 16"
   version="1.1"
   id="svg6"
   sodipodi:docname="user-trash.svg"
   inkscape:version="0.92.3 (2405546, 2018-03-11)">
  <metadata
     id="metadata10">
    <rdf:RDF>
      <cc:Work
         rdf:about="">
        <dc:format>image/svg+xml</dc:format>
        <dc:type
           rdf:resource="http://purl.org/dc/dcmitype/StillImage" />
      </cc:Work>
    </rdf:RDF>
  </metadata>
  <sodipodi:namedview
     pagecolor="#ffffff"
     bordercolor="#666666"
     borderopacity="1"
     objecttolerance="10"
     gridtolerance="10"
     guidetolerance="10"
     inkscape:pageopacity="0"
     inkscape:pageshadow="2"
     inkscape:window-width="1366"
     inkscape:window-height="713"
     id="namedview8"
     showgrid="false"
     inkscape:zoom="22.081895"
     inkscape:cx="8"
     inkscape:cy="8"
     inkscape:window-x="0"
     inkscape:window-y="25"
     inkscape:window-maximized="1"
     inkscape:current-layer="svg6" />
  <defs
     id="defs3051">
    <style
       type="text/css"
       id="current-color-scheme">
      .ColorScheme-Text {
        color:#4d4d4d;
      }
      </style>
  </defs>
  <g
     transform="matrix(0.23147164,0,0,0.23147164,1.1863903,1.0014565)"
     id="g10"
     style="fill:#4d4d4d;fill-opacity:1">
    <path
       inkscape:connector-curvature="0"
       d="m 29.5,51 c 0.552,0 1,-0.447 1,-1 V 17 c 0,-0.553 -0.448,-1 -1,-1 -0.552,0 -1,0.447 -1,1 v 33 c 0,0.553 0.448,1 1,1 z"
       id="path2"
       style="fill:#4d4d4d;fill-opacity:1" />
    <path
       inkscape:connector-curvature="0"
       d="m 19.5,51 c 0.552,0 1,-0.447 1,-1 V 17 c 0,-0.553 -0.448,-1 -1,-1 -0.552,0 -1,0.447 -1,1 v 33 c 0,0.553 0.448,1 1,1 z"
       id="path4"
       style="fill:#4d4d4d;fill-opacity:1" />
    <path
       inkscape:connector-curvature="0"
       d="m 39.5,51 c 0.552,0 1,-0.447 1,-1 V 17 c 0,-0.553 -0.448,-1 -1,-1 -0.552,0 -1,0.447 -1,1 v 33 c 0,0.553 0.448,1 1,1 z"
       id="path6"
       style="fill:#4d4d4d;fill-opacity:1" />
    <path
       inkscape:connector-curvature="0"
       d="M 52.5,6 H 38.456 C 38.346,4.75 37.961,2.642 36.643,1.289 35.809,0.434 34.751,0 33.499,0 H 23.5 C 22.248,0 21.19,0.434 20.356,1.289 19.038,2.642 18.653,4.75 18.543,6 H 6.5 c -0.552,0 -1,0.447 -1,1 0,0.553 0.448,1 1,1 h 2.041 l 1.915,46.021 C 10.493,55.743 11.565,59 15.364,59 h 28.272 c 3.799,0 4.871,-3.257 4.907,-4.958 L 50.459,8 H 52.5 c 0.552,0 1,-0.447 1,-1 0,-0.553 -0.448,-1 -1,-1 z M 21.792,2.681 C 22.24,2.223 22.799,2 23.5,2 h 9.999 c 0.701,0 1.26,0.223 1.708,0.681 0.805,0.823 1.128,2.271 1.24,3.319 H 20.553 C 20.665,4.952 20.988,3.504 21.792,2.681 Z M 46.544,53.979 C 46.538,54.288 46.4,57 43.636,57 H 15.364 C 12.63,57 12.466,54.283 12.455,53.958 L 10.542,8 h 37.915 z"
       id="path8"
       style="fill:#4d4d4d;fill-opacity:1" />
  </g>
</svg>
